<svg width="0" height="0" class="hidden">
  <symbol xmlns="http://www.w3.org/2000/svg" viewBox="0 0 39.5 26.03" id="autos">
    <g id="Illustration" transform="translate(-1.25 -7.25)">
      <path id="Path_185212" d="M26.315,30.86a.5.5,0,0,1-.5-.5V27.78a.5.5,0,0,1,1,0v2.58A.5.5,0,0,1,26.315,30.86Z" fill="#b3b3b3"></path>
      <path id="Path_185213" d="M8.333,29.44H4.714a.5.5,0,1,1,0-1H8.333a.5.5,0,0,1,0,1Z" fill="#b3b3b3"></path>
      <path id="Path_185214" d="M38,25.25H4A2.752,2.752,0,0,0,1.25,28v2A2.752,2.752,0,0,0,4,32.75h.664a1.349,1.349,0,0,0,1.068.53h.9A1.349,1.349,0,0,0,7.7,32.75H33.842a1.349,1.349,0,0,0,1.069.53h.9a1.349,1.349,0,0,0,1.069-.53H38A2.752,2.752,0,0,0,40.75,30V28A2.752,2.752,0,0,0,38,25.25ZM39.25,30A1.252,1.252,0,0,1,38,31.25H4A1.252,1.252,0,0,1,2.75,30V28A1.252,1.252,0,0,1,4,26.75H38A1.252,1.252,0,0,1,39.25,28Z" fill="#b3b3b3"></path>
      <circle id="Ellipse_9389" cx="0.339" cy="0.339" r="0.339" transform="translate(27.673 27.244)" fill="#b3b3b3"></circle>
      <circle id="Ellipse_9390" cx="0.339" cy="0.339" r="0.339" transform="translate(29.03 27.244)" fill="#b3b3b3"></circle>
      <circle id="Ellipse_9391" cx="0.339" cy="0.339" r="0.339" transform="translate(30.387 27.244)" fill="#b3b3b3"></circle>
      <circle id="Ellipse_9392" cx="0.339" cy="0.339" r="0.339" transform="translate(31.744 27.244)" fill="#b3b3b3"></circle>
      <circle id="Ellipse_9393" cx="0.339" cy="0.339" r="0.339" transform="translate(33.101 27.244)" fill="#b3b3b3"></circle>
      <circle id="Ellipse_9394" cx="0.339" cy="0.339" r="0.339" transform="translate(34.459 27.244)" fill="#b3b3b3"></circle>
      <circle id="Ellipse_9395" cx="0.339" cy="0.339" r="0.339" transform="translate(35.816 27.244)" fill="#b3b3b3"></circle>
      <circle id="Ellipse_9396" cx="0.339" cy="0.339" r="0.339" transform="translate(37.173 27.244)" fill="#b3b3b3"></circle>
      <circle id="Ellipse_9397" cx="0.339" cy="0.339" r="0.339" transform="translate(28.351 28.601)" fill="#b3b3b3"></circle>
      <circle id="Ellipse_9398" cx="0.339" cy="0.339" r="0.339" transform="translate(29.709 28.601)" fill="#b3b3b3"></circle>
      <circle id="Ellipse_9399" cx="0.339" cy="0.339" r="0.339" transform="translate(31.066 28.601)" fill="#b3b3b3"></circle>
      <circle id="Ellipse_9400" cx="0.339" cy="0.339" r="0.339" transform="translate(32.423 28.601)" fill="#b3b3b3"></circle>
      <circle id="Ellipse_9401" cx="0.339" cy="0.339" r="0.339" transform="translate(33.78 28.601)" fill="#b3b3b3"></circle>
      <circle id="Ellipse_9402" cx="0.339" cy="0.339" r="0.339" transform="translate(35.137 28.601)" fill="#b3b3b3"></circle>
      <circle id="Ellipse_9403" cx="0.339" cy="0.339" r="0.339" transform="translate(36.494 28.601)" fill="#b3b3b3"></circle>
      <circle id="Ellipse_9404" cx="0.339" cy="0.339" r="0.339" transform="translate(37.851 28.601)" fill="#b3b3b3"></circle>
      <circle id="Ellipse_9405" cx="0.339" cy="0.339" r="0.339" transform="translate(27.673 29.959)" fill="#b3b3b3"></circle>
      <circle id="Ellipse_9406" cx="0.339" cy="0.339" r="0.339" transform="translate(29.03 29.959)" fill="#b3b3b3"></circle>
      <circle id="Ellipse_9407" cx="0.339" cy="0.339" r="0.339" transform="translate(30.387 29.959)" fill="#b3b3b3"></circle>
      <circle id="Ellipse_9408" cx="0.339" cy="0.339" r="0.339" transform="translate(31.744 29.959)" fill="#b3b3b3"></circle>
      <circle id="Ellipse_9409" cx="0.339" cy="0.339" r="0.339" transform="translate(33.101 29.959)" fill="#b3b3b3"></circle>
      <circle id="Ellipse_9410" cx="0.339" cy="0.339" r="0.339" transform="translate(34.459 29.959)" fill="#b3b3b3"></circle>
      <circle id="Ellipse_9411" cx="0.339" cy="0.339" r="0.339" transform="translate(35.816 29.959)" fill="#b3b3b3"></circle>
      <circle id="Ellipse_9412" cx="0.339" cy="0.339" r="0.339" transform="translate(37.173 29.959)" fill="#b3b3b3"></circle>
      <path id="Path_185215" d="M26.315,21.86a.5.5,0,0,1-.5-.5V18.78a.5.5,0,0,1,1,0v2.58A.5.5,0,0,1,26.315,21.86Z" fill="#b3b3b3"></path>
      <path id="Path_185216" d="M8.333,20.44H4.714a.5.5,0,0,1,0-1H8.333a.5.5,0,0,1,0,1Z" fill="#b3b3b3"></path>
      <circle id="Ellipse_9413" cx="0.339" cy="0.339" r="0.339" transform="translate(27.673 18.244)" fill="#b3b3b3"></circle>
      <circle id="Ellipse_9414" cx="0.339" cy="0.339" r="0.339" transform="translate(29.03 18.244)" fill="#b3b3b3"></circle>
      <circle id="Ellipse_9415" cx="0.339" cy="0.339" r="0.339" transform="translate(30.387 18.244)" fill="#b3b3b3"></circle>
      <circle id="Ellipse_9416" cx="0.339" cy="0.339" r="0.339" transform="translate(31.744 18.244)" fill="#b3b3b3"></circle>
      <circle id="Ellipse_9417" cx="0.339" cy="0.339" r="0.339" transform="translate(33.101 18.244)" fill="#b3b3b3"></circle>
      <circle id="Ellipse_9418" cx="0.339" cy="0.339" r="0.339" transform="translate(34.459 18.244)" fill="#b3b3b3"></circle>
      <circle id="Ellipse_9419" cx="0.339" cy="0.339" r="0.339" transform="translate(35.816 18.244)" fill="#b3b3b3"></circle>
      <circle id="Ellipse_9420" cx="0.339" cy="0.339" r="0.339" transform="translate(37.173 18.244)" fill="#b3b3b3"></circle>
      <circle id="Ellipse_9421" cx="0.339" cy="0.339" r="0.339" transform="translate(28.351 19.601)" fill="#b3b3b3"></circle>
      <circle id="Ellipse_9422" cx="0.339" cy="0.339" r="0.339" transform="translate(29.709 19.601)" fill="#b3b3b3"></circle>
      <circle id="Ellipse_9423" cx="0.339" cy="0.339" r="0.339" transform="translate(31.066 19.601)" fill="#b3b3b3"></circle>
      <circle id="Ellipse_9424" cx="0.339" cy="0.339" r="0.339" transform="translate(32.423 19.601)" fill="#b3b3b3"></circle>
      <circle id="Ellipse_9425" cx="0.339" cy="0.339" r="0.339" transform="translate(33.78 19.601)" fill="#b3b3b3"></circle>
      <circle id="Ellipse_9426" cx="0.339" cy="0.339" r="0.339" transform="translate(35.137 19.601)" fill="#b3b3b3"></circle>
      <circle id="Ellipse_9427" cx="0.339" cy="0.339" r="0.339" transform="translate(36.494 19.601)" fill="#b3b3b3"></circle>
      <circle id="Ellipse_9428" cx="0.339" cy="0.339" r="0.339" transform="translate(37.851 19.601)" fill="#b3b3b3"></circle>
      <circle id="Ellipse_9429" cx="0.339" cy="0.339" r="0.339" transform="translate(27.673 20.959)" fill="#b3b3b3"></circle>
      <circle id="Ellipse_9430" cx="0.339" cy="0.339" r="0.339" transform="translate(29.03 20.959)" fill="#b3b3b3"></circle>
      <circle id="Ellipse_9431" cx="0.339" cy="0.339" r="0.339" transform="translate(30.387 20.959)" fill="#b3b3b3"></circle>
      <circle id="Ellipse_9432" cx="0.339" cy="0.339" r="0.339" transform="translate(31.744 20.959)" fill="#b3b3b3"></circle>
      <circle id="Ellipse_9433" cx="0.339" cy="0.339" r="0.339" transform="translate(33.101 20.959)" fill="#b3b3b3"></circle>
      <circle id="Ellipse_9434" cx="0.339" cy="0.339" r="0.339" transform="translate(34.459 20.959)" fill="#b3b3b3"></circle>
      <circle id="Ellipse_9435" cx="0.339" cy="0.339" r="0.339" transform="translate(35.816 20.959)" fill="#b3b3b3"></circle>
      <circle id="Ellipse_9436" cx="0.339" cy="0.339" r="0.339" transform="translate(37.173 20.959)" fill="#b3b3b3"></circle>
      <path id="Path_185217" d="M26.315,12.86a.5.5,0,0,1-.5-.5V9.78a.5.5,0,1,1,1,0v2.58A.5.5,0,0,1,26.315,12.86Z" fill="#b3b3b3"></path>
      <path id="Path_185218" d="M8.333,11.44H4.714a.5.5,0,0,1,0-1H8.333a.5.5,0,0,1,0,1Z" fill="#b3b3b3"></path>
      <g id="Group_183191">
        <g id="Group_183189">
          <path id="Path_185219" d="M38,16.25H4A2.752,2.752,0,0,0,1.25,19v2A2.752,2.752,0,0,0,4,23.75h.664a1.349,1.349,0,0,0,1.068.53h.9A1.349,1.349,0,0,0,7.7,23.75H33.842a1.349,1.349,0,0,0,1.069.53h.9a1.349,1.349,0,0,0,1.069-.53H38A2.752,2.752,0,0,0,40.75,21V19A2.752,2.752,0,0,0,38,16.25ZM39.25,21A1.252,1.252,0,0,1,38,22.25H4A1.252,1.252,0,0,1,2.75,21V19A1.252,1.252,0,0,1,4,17.75H38A1.252,1.252,0,0,1,39.25,19Z" fill="#b3b3b3"></path>
          <path id="Path_185220" d="M38,7.25H4A2.752,2.752,0,0,0,1.25,10v2A2.752,2.752,0,0,0,4,14.75h.664a1.349,1.349,0,0,0,1.068.53h.9A1.349,1.349,0,0,0,7.7,14.75H33.842a1.349,1.349,0,0,0,1.069.53h.9a1.349,1.349,0,0,0,1.069-.53H38A2.752,2.752,0,0,0,40.75,12V10A2.752,2.752,0,0,0,38,7.25ZM39.25,12A1.252,1.252,0,0,1,38,13.25H4A1.252,1.252,0,0,1,2.75,12V10A1.252,1.252,0,0,1,4,8.75H38A1.252,1.252,0,0,1,39.25,10Z" fill="#b3b3b3"></path>
        </g>
        <g id="Group_183190">
          <path id="Path_185221" d="M38,16.25H4A2.752,2.752,0,0,0,1.25,19v2A2.752,2.752,0,0,0,4,23.75h.664a1.349,1.349,0,0,0,1.068.53h.9A1.349,1.349,0,0,0,7.7,23.75H33.842a1.349,1.349,0,0,0,1.069.53h.9a1.349,1.349,0,0,0,1.069-.53H38A2.752,2.752,0,0,0,40.75,21V19A2.752,2.752,0,0,0,38,16.25ZM39.25,21A1.252,1.252,0,0,1,38,22.25H4A1.252,1.252,0,0,1,2.75,21V19A1.252,1.252,0,0,1,4,17.75H38A1.252,1.252,0,0,1,39.25,19Z" fill="#b3b3b3"></path>
          <path id="Path_185222" d="M38,7.25H4A2.752,2.752,0,0,0,1.25,10v2A2.752,2.752,0,0,0,4,14.75h.664a1.349,1.349,0,0,0,1.068.53h.9A1.349,1.349,0,0,0,7.7,14.75H33.842a1.349,1.349,0,0,0,1.069.53h.9a1.349,1.349,0,0,0,1.069-.53H38A2.752,2.752,0,0,0,40.75,12V10A2.752,2.752,0,0,0,38,7.25ZM39.25,12A1.252,1.252,0,0,1,38,13.25H4A1.252,1.252,0,0,1,2.75,12V10A1.252,1.252,0,0,1,4,8.75H38A1.252,1.252,0,0,1,39.25,10Z" fill="#b3b3b3"></path>
        </g>
      </g>
      <circle id="Ellipse_9437" cx="0.339" cy="0.339" r="0.339" transform="translate(27.673 9.244)" fill="#b3b3b3"></circle>
      <circle id="Ellipse_9438" cx="0.339" cy="0.339" r="0.339" transform="translate(29.03 9.244)" fill="#b3b3b3"></circle>
      <circle id="Ellipse_9439" cx="0.339" cy="0.339" r="0.339" transform="translate(30.387 9.244)" fill="#b3b3b3"></circle>
      <circle id="Ellipse_9440" cx="0.339" cy="0.339" r="0.339" transform="translate(31.744 9.244)" fill="#b3b3b3"></circle>
      <circle id="Ellipse_9441" cx="0.339" cy="0.339" r="0.339" transform="translate(33.101 9.244)" fill="#b3b3b3"></circle>
      <circle id="Ellipse_9442" cx="0.339" cy="0.339" r="0.339" transform="translate(34.459 9.244)" fill="#b3b3b3"></circle>
      <circle id="Ellipse_9443" cx="0.339" cy="0.339" r="0.339" transform="translate(35.816 9.244)" fill="#b3b3b3"></circle>
      <circle id="Ellipse_9444" cx="0.339" cy="0.339" r="0.339" transform="translate(37.173 9.244)" fill="#b3b3b3"></circle>
      <circle id="Ellipse_9445" cx="0.339" cy="0.339" r="0.339" transform="translate(28.351 10.601)" fill="#b3b3b3"></circle>
      <circle id="Ellipse_9446" cx="0.339" cy="0.339" r="0.339" transform="translate(29.709 10.601)" fill="#b3b3b3"></circle>
      <circle id="Ellipse_9447" cx="0.339" cy="0.339" r="0.339" transform="translate(31.066 10.601)" fill="#b3b3b3"></circle>
      <circle id="Ellipse_9448" cx="0.339" cy="0.339" r="0.339" transform="translate(32.423 10.601)" fill="#b3b3b3"></circle>
      <circle id="Ellipse_9449" cx="0.339" cy="0.339" r="0.339" transform="translate(33.78 10.601)" fill="#b3b3b3"></circle>
      <circle id="Ellipse_9450" cx="0.339" cy="0.339" r="0.339" transform="translate(35.137 10.601)" fill="#b3b3b3"></circle>
      <circle id="Ellipse_9451" cx="0.339" cy="0.339" r="0.339" transform="translate(36.494 10.601)" fill="#b3b3b3"></circle>
      <circle id="Ellipse_9452" cx="0.339" cy="0.339" r="0.339" transform="translate(37.851 10.601)" fill="#b3b3b3"></circle>
      <circle id="Ellipse_9453" cx="0.339" cy="0.339" r="0.339" transform="translate(27.673 11.959)" fill="#b3b3b3"></circle>
      <circle id="Ellipse_9454" cx="0.339" cy="0.339" r="0.339" transform="translate(29.03 11.959)" fill="#b3b3b3"></circle>
      <circle id="Ellipse_9455" cx="0.339" cy="0.339" r="0.339" transform="translate(30.387 11.959)" fill="#b3b3b3"></circle>
      <circle id="Ellipse_9456" cx="0.339" cy="0.339" r="0.339" transform="translate(31.744 11.959)" fill="#b3b3b3"></circle>
      <circle id="Ellipse_9457" cx="0.339" cy="0.339" r="0.339" transform="translate(33.101 11.959)" fill="#b3b3b3"></circle>
      <circle id="Ellipse_9458" cx="0.339" cy="0.339" r="0.339" transform="translate(34.459 11.959)" fill="#b3b3b3"></circle>
      <circle id="Ellipse_9459" cx="0.339" cy="0.339" r="0.339" transform="translate(35.816 11.959)" fill="#b3b3b3"></circle>
      <circle id="Ellipse_9460" cx="0.339" cy="0.339" r="0.339" transform="translate(37.173 11.959)" fill="#b3b3b3"></circle>
    </g>
  </symbol>
  <symbol xmlns="http://www.w3.org/2000/svg" viewBox="0 0 40.5 29.501" id="collab">
    <g id="Illustration" transform="translate(-0.25 -5.25)">
      <path id="Path_185206" d="M11,7.833a5.5,5.5,0,0,0-.047,11.008H11A5.5,5.5,0,1,0,11,7.832Zm0,1a4.505,4.505,0,0,1,4.5,4.5,4.455,4.455,0,0,1-.858,2.616,2.693,2.693,0,0,0-2.08-1.282,3.042,3.042,0,0,1-.047-.381,3.132,3.132,0,0,0,.626-1.8,2.152,2.152,0,0,0-2.134-2.39,2.123,2.123,0,0,0-2.115,2.4,3.07,3.07,0,0,0,.6,1.786,3.2,3.2,0,0,1-.049.392,2.769,2.769,0,0,0-2.071,1.29,4.453,4.453,0,0,1-.87-2.631,4.5,4.5,0,0,1,4.5-4.5Zm0,9.008a4.492,4.492,0,0,1-2.9-1.1,1.828,1.828,0,0,1,1.739-1.11.621.621,0,0,0,.5-.456c0-.01.328-1.053.022-1.4a2.064,2.064,0,0,1-.47-1.285c0-.519.144-1.39,1.115-1.39.721,0,1.134.506,1.134,1.377a2.092,2.092,0,0,1-.484,1.281c-.326.361,0,1.4.005,1.407a.632.632,0,0,0,.529.465c1.159.1,1.574.653,1.721,1.1A4.5,4.5,0,0,1,11.04,17.84Z" fill="#b3b3b3"></path>
      <path id="Path_185207" d="M16.648,28.751a.748.748,0,0,1-.525-.215L9.21,21.75H4A3.755,3.755,0,0,1,.25,18V9A3.755,3.755,0,0,1,4,5.25H18A3.755,3.755,0,0,1,21.75,9v.567a.75.75,0,0,1-1.5,0V9A2.253,2.253,0,0,0,18,6.75H4A2.253,2.253,0,0,0,1.75,9v9A2.253,2.253,0,0,0,4,20.25H9.517a.75.75,0,0,1,.525.215L15.9,26.214V21a.75.75,0,0,1,1.5,0v7a.752.752,0,0,1-.75.75Z" fill="#b3b3b3"></path>
      <path id="Path_185208" d="M30,13.833a5.5,5.5,0,1,0,0,11.01h.049A5.505,5.505,0,1,0,30,13.833Zm0,1a4.505,4.505,0,0,1,4.5,4.5,4.449,4.449,0,0,1-.869,2.63,2.762,2.762,0,0,0-2.072-1.29,3.148,3.148,0,0,1-.049-.39,3.07,3.07,0,0,0,.6-1.792A2.121,2.121,0,0,0,30,16.1a2.156,2.156,0,0,0-2.134,2.4,3.12,3.12,0,0,0,.626,1.78,2.915,2.915,0,0,1-.047.383,2.708,2.708,0,0,0-2.079,1.282,4.454,4.454,0,0,1-.859-2.617,4.505,4.505,0,0,1,4.5-4.5Zm0,9.008h-.037a4.5,4.5,0,0,1-2.871-1.111c.148-.448.566-1,1.743-1.1a.629.629,0,0,0,.507-.463c0-.01.331-1.046.016-1.4a2.092,2.092,0,0,1-.5-1.28c0-.884.413-1.39,1.134-1.39.971,0,1.115.871,1.115,1.385a2.058,2.058,0,0,1-.458,1.276c-.318.359.006,1.4.01,1.412a.625.625,0,0,0,.52.458A1.812,1.812,0,0,1,32.9,22.74,4.49,4.49,0,0,1,30,23.841Z" fill="#b3b3b3"></path>
      <path id="Path_185209" d="M24.352,34.751A.752.752,0,0,1,23.6,34V27.75H23A3.755,3.755,0,0,1,19.25,24V15A3.755,3.755,0,0,1,23,11.25H37A3.755,3.755,0,0,1,40.75,15v9A3.755,3.755,0,0,1,37,27.75H31.79l-6.913,6.786a.748.748,0,0,1-.525.215ZM23,12.75A2.253,2.253,0,0,0,20.75,15v9A2.253,2.253,0,0,0,23,26.25h1.352a.75.75,0,0,1,.75.75v5.214l5.856-5.749a.75.75,0,0,1,.525-.215H37A2.253,2.253,0,0,0,39.25,24V15A2.253,2.253,0,0,0,37,12.75Z" fill="#b3b3b3"></path>
    </g>
  </symbol>
  <symbol xmlns="http://www.w3.org/2000/svg" viewBox="0 0 34.5 36.736" id="Inta">
    <g id="Illustration" transform="translate(-3.5 -2.264)">
      <path id="Path_185210" d="M32.666,24.929H27.6a1.617,1.617,0,0,0-1.4,2.435l.143.239a2.454,2.454,0,0,1,.476,1.145,1.3,1.3,0,1,1-2.593,0A2.463,2.463,0,0,1,24.7,27.6l.142-.237a1.618,1.618,0,0,0-1.4-2.435H13.334a.2.2,0,0,1-.076-.095.183.183,0,0,1,.013-.174l.145-.243a3.965,3.965,0,0,0,.748-2.067,2.992,2.992,0,1,0-5.984,0,3.965,3.965,0,0,0,.749,2.067l.145.244a.187.187,0,0,1,.013.173.211.211,0,0,1-.076.095H4.25a.75.75,0,0,0-.75.75V38.25a.75.75,0,0,0,.75.75H23.308a1.617,1.617,0,0,0,1.4-2.435l-.142-.237a2.478,2.478,0,0,1-.477-1.147,1.3,1.3,0,0,1,2.593,0,2.47,2.47,0,0,1-.478,1.147l-.141.237A1.617,1.617,0,0,0,27.455,39h5.211a.75.75,0,0,0,.75-.75V25.679a.75.75,0,0,0-.75-.75ZM5,26.429H9.147a.72.72,0,0,0,.191-.025,1.707,1.707,0,0,0,1.136-1,1.681,1.681,0,0,0-.106-1.5l-.155-.259a2.748,2.748,0,0,1-.532-1.293,1.492,1.492,0,1,1,2.983,0,2.748,2.748,0,0,1-.532,1.293l-.154.258a1.68,1.68,0,0,0-.107,1.5,1.706,1.706,0,0,0,1.137,1,.718.718,0,0,0,.19.025h4.294v3.448a.209.209,0,0,1-.094.076.19.19,0,0,1-.175-.014l-.241-.143a3.964,3.964,0,0,0-2.069-.749,2.991,2.991,0,0,0,0,5.982,3.964,3.964,0,0,0,2.069-.749l.241-.143a.2.2,0,0,1,.175-.014.216.216,0,0,1,.094.076v3.3H5ZM31.916,37.5H27.455a.118.118,0,0,1-.1-.177l.131-.22a3.68,3.68,0,0,0,.693-1.922,2.8,2.8,0,0,0-5.593,0,3.688,3.688,0,0,0,.692,1.922l.132.22a.118.118,0,0,1-.1.177H18.992V34.063a.767.767,0,0,0-.024-.19,1.711,1.711,0,0,0-1-1.136,1.687,1.687,0,0,0-1.507.1L16.207,33a2.743,2.743,0,0,1-1.294.533,1.491,1.491,0,0,1,0-2.982,2.743,2.743,0,0,1,1.294.533l.258.154a1.682,1.682,0,0,0,1.507.1,1.711,1.711,0,0,0,1-1.136.761.761,0,0,0,.024-.19V26.429h4.462a.117.117,0,0,1,.1.177l-.131.22a3.685,3.685,0,0,0-.693,1.922,2.8,2.8,0,1,0,5.593,0,3.669,3.669,0,0,0-.692-1.92l-.132-.222a.118.118,0,0,1,.1-.177h4.315Z" fill="#b3b3b3"></path>
      <path id="Path_185211" d="M37.922,7.29a.752.752,0,0,0-.433-.378L23.825,2.3h0a.7.7,0,0,0-.08-.01.8.8,0,0,0-.217-.026.749.749,0,0,0-.654.506L21.72,6.19a.727.727,0,0,0-.037.19,1.7,1.7,0,0,0,.581,1.393,1.673,1.673,0,0,0,1.461.383l.294-.063A2.727,2.727,0,0,1,25.413,8a1.492,1.492,0,1,1-.953,2.827,2.766,2.766,0,0,1-1.06-.92l-.192-.225A1.672,1.672,0,0,0,21.816,9.1a1.708,1.708,0,0,0-1.308.756.738.738,0,0,0-.085.174l-1.19,3.528a.751.751,0,0,0,.472.95l4.939,1.666a.107.107,0,0,1,.076.088.111.111,0,0,1-.038.111l-.2.167a3.673,3.673,0,0,0-1.27,1.6,2.8,2.8,0,0,0,5.3,1.791,3.692,3.692,0,0,0-.041-2.039l-.055-.256a.116.116,0,0,1,.151-.134l4.8,1.618h0a.749.749,0,0,0,.24.039l.031,0a.867.867,0,0,0,.089-.013.74.74,0,0,0,.167-.047.586.586,0,0,0,.087-.043.724.724,0,0,0,.141-.108.821.821,0,0,0,.06-.058.736.736,0,0,0,.136-.236L37.961,7.863a.751.751,0,0,0-.039-.573ZM33.14,17.458l-4.089-1.38a1.617,1.617,0,0,0-2.1,1.86l.059.274a2.462,2.462,0,0,1,.084,1.237,1.3,1.3,0,1,1-2.456-.829,2.45,2.45,0,0,1,.818-.934l.21-.179a1.619,1.619,0,0,0-.543-2.754L20.9,13.327l.9-2.687a.2.2,0,0,1,.114-.042.177.177,0,0,1,.161.067l.181.212a3.988,3.988,0,0,0,1.723,1.374,2.992,2.992,0,1,0,1.913-5.67,3.969,3.969,0,0,0-2.2.049l-.273.059a.192.192,0,0,1-.171-.043.207.207,0,0,1-.065-.1l.871-2.58L36.3,8.094Z" fill="#b3b3b3"></path>
    </g>
  </symbol>
  <symbol xmlns="http://www.w3.org/2000/svg" viewBox="0 0 38.508 29.933" id="library">
    <g id="Illustration" transform="translate(-0.756 -5.037)">
      <path id="Path_185200" d="M20.006,23.852c-2.542,0-4.858-2.745-4.858-5.758a4.864,4.864,0,1,1,9.714,0C24.862,21.107,22.548,23.852,20.006,23.852Zm0-9.375a3.343,3.343,0,0,0-3.358,3.617c0,2.188,1.632,4.258,3.358,4.258s3.356-2.07,3.356-4.258a3.342,3.342,0,0,0-3.356-3.617Z" fill="#b3b3b3"></path>
      <path id="Path_185201" d="M29.62,15.921c-2.542,0-4.856-2.745-4.856-5.759a4.863,4.863,0,1,1,9.713,0C34.477,13.176,32.162,15.921,29.62,15.921Zm0-9.376a3.342,3.342,0,0,0-3.356,3.617c0,2.19,1.631,4.259,3.356,4.259s3.357-2.069,3.357-4.259A3.342,3.342,0,0,0,29.62,6.545Z" fill="#b3b3b3"></path>
      <path id="Path_185202" d="M38.481,27.038h-.047a.752.752,0,0,1-.7-.793c.01-.207.025-2.257.025-2.411,0-2.317-.548-6.212-4.12-6.934a4.973,4.973,0,0,1-3.9,1.831,4.882,4.882,0,0,1-4.194-2.267.752.752,0,0,1,1.3-.758,3.519,3.519,0,0,0,5.8,0,.741.741,0,0,1,.737-.365c3.738.451,5.882,3.547,5.882,8.493,0,.021-.015,2.3-.027,2.5A.75.75,0,0,1,38.481,27.038Z" fill="#b3b3b3"></path>
      <path id="Path_185203" d="M10.391,15.921c-2.542,0-4.857-2.745-4.857-5.759a4.864,4.864,0,1,1,9.714,0C15.248,13.176,12.933,15.921,10.391,15.921Zm0-9.376a3.342,3.342,0,0,0-3.357,3.617c0,2.19,1.631,4.259,3.357,4.259s3.357-2.069,3.357-4.259a3.343,3.343,0,0,0-3.357-3.617Z" fill="#b3b3b3"></path>
      <path id="Path_185204" d="M1.529,27.034a.748.748,0,0,1-.748-.7c-.011-.2-.025-2.481-.025-2.5,0-4.946,2.143-8.042,5.881-8.493a.74.74,0,0,1,.737.365,3.358,3.358,0,0,0,2.9,1.525,3.359,3.359,0,0,0,2.9-1.525.752.752,0,1,1,1.3.758,4.882,4.882,0,0,1-4.195,2.267,4.973,4.973,0,0,1-3.9-1.831c-3.571.722-4.119,4.617-4.119,6.934,0,.155.014,2.21.023,2.412a.753.753,0,0,1-.708.788Z" fill="#b3b3b3"></path>
      <path id="Path_185205" d="M28.867,34.97h-.048a.752.752,0,0,1-.7-.8c.01-.2.024-2.253.024-2.408,0-2.318-.548-6.212-4.12-6.934a5.065,5.065,0,0,1-7.8,0c-3.573.722-4.121,4.616-4.121,6.934,0,.155.015,2.21.025,2.412a.754.754,0,0,1-.708.788.731.731,0,0,1-.79-.7c-.012-.2-.027-2.482-.027-2.5,0-4.947,2.144-8.042,5.882-8.494a.738.738,0,0,1,.738.366,3.518,3.518,0,0,0,5.8,0,.745.745,0,0,1,.738-.366c3.737.452,5.881,3.547,5.881,8.494,0,.02-.014,2.3-.026,2.5A.75.75,0,0,1,28.867,34.97Z" fill="#b3b3b3"></path>
    </g>
  </symbol>
  <symbol xmlns="http://www.w3.org/2000/svg" viewBox="0 0 448 512" id="line">
    <path d="M400 288h-352c-17.69 0-32-14.32-32-32.01s14.31-31.99 32-31.99h352c17.69 0 32 14.3 32 31.99S417.7 288 400 288z"></path>
  </symbol>
  <symbol xmlns="http://www.w3.org/2000/svg" viewBox="0 0 448 512" id="quotes">
    <path d="M96 96C42.98 96 0 138.1 0 192s42.98 96 96 96c11.28 0 21.95-2.305 32-5.879V288c0 35.3-28.7 64-64 64c-17.67 0-32 14.33-32 32s14.33 32 32 32c70.58 0 128-57.42 128-128V192C192 138.1 149 96 96 96zM448 192c0-53.02-42.98-96-96-96s-96 42.98-96 96s42.98 96 96 96c11.28 0 21.95-2.305 32-5.879V288c0 35.3-28.7 64-64 64c-17.67 0-32 14.33-32 32s14.33 32 32 32c70.58 0 128-57.42 128-128V192z"></path>
  </symbol>
</svg>